<svg width="34" height="34" viewBox="0 0 34 34" fill="none" xmlns="http://www.w3.org/2000/svg">
<path d="M23.8065 0H10.1935C4.56377 0 0 4.56377 0 10.1935V23.8065C0 29.4362 4.56377 34 10.1935 34H23.8065C29.4362 34 34 29.4362 34 23.8065V10.1935C34 4.56377 29.4362 0 23.8065 0Z" fill="white" fill-opacity="0.2"/>
<path d="M25.9959 15.3948C26.0363 14.241 25.7803 13.0957 25.2518 12.0655C24.8932 11.6427 24.3955 11.3574 23.8454 11.2593C21.5703 11.0558 19.2857 10.9724 17.0015 11.0094C14.7257 10.9707 12.4493 11.0514 10.1822 11.2513C9.73397 11.3316 9.31917 11.5389 8.98841 11.8478C8.25251 12.5169 8.17074 13.6616 8.08898 14.629C7.97034 16.3683 7.97034 18.1135 8.08898 19.8528C8.11263 20.3972 8.19486 20.9377 8.33427 21.4651C8.43286 21.8722 8.63233 22.2489 8.91482 22.5614C9.24783 22.8866 9.67229 23.1057 10.1331 23.1902C11.896 23.4047 13.6722 23.4936 15.448 23.4562C18.3098 23.4965 20.82 23.4562 23.7882 23.2305C24.2603 23.1512 24.6967 22.9319 25.0392 22.6017C25.2681 22.3759 25.4391 22.0996 25.538 21.7956C25.8304 20.9109 25.974 19.9851 25.9631 19.0547C25.9959 18.6033 25.9959 15.8785 25.9959 15.3948ZM15.1536 19.5384V14.5484L19.9942 17.0555C18.6369 17.7971 16.8462 18.6355 15.1536 19.5384Z" fill="#F6F9FC"/>
</svg>
